{"title":"Ismael Rodriguez - Animas Trujano (1962)","uid":5179442,"size":1255125744,"categoryP":"video","categoryS":"movies","magnet":"?xt=urn:btih:3e6499448fae123e8f0d45a90bf39c3d7bc48623&amp;dn=Ismael+Rodriguez+-+Animas+Trujano+%281962%29&amp;tr=udp%3A%2F%2Ftracker.openbittorrent.com%3A80&amp;tr=udp%3A%2F%2Fopen.demonii.com%3A1337&amp;tr=udp%3A%2F%2Ftracker.coppersurfer.tk%3A6969&amp;tr=udp%3A%2F%2Fexodus.desync.com%3A6969","seeders":2,"leechers":0,"uploader":"mfccorrea","files":6,"time":1259160926,"description":"This award-winning drama by noted director Ismael RodrÃƒÂ­guez revolves around a festival of mayordomÃƒÂ­a in the provinces, or something on the idea of &quot;king for a day.&quot; In the annual celebration, the church elects one man as &quot;chief,&quot; an honor that is gained by buying it, in effect. Whoever donates the most, gets the coveted title. Celebrated Japanese star Toshiro Mifune plays the lead character, Animas Trujano, a rough peasant who abuses his children and does nothing while his wife supports the family. Animas would like to be &quot;chief&quot; in the annual festival and begins to do everything he can to get the needed money. Meanwhile, Animas' wife is headed for some serious trouble in connection with a local woman of dubious morals that Animas has been seeing.\n\n   General\n      Complete name : Animas Trujano.avi\n      Format : AVI\n      Format/Info : Audio Video Interleave\n      File size : 1.16 GiB\n      Duration : 1h 39mn\n      Overall bit rate : 1 662 Kbps\n      Writing application : FairUse Wizard - http://fairusewizard.com\n      Writing library : The best and REALLY easy backup tool\n   Video #0\n      ID : 0\n      Format : MPEG-4 Visual\n      Format profile : AdvancedSimple@L5\n      Format settings, BVOP : Yes\n      Format settings, QPel : No\n      Format settings, GMC : No warppoints\n      Format settings, Matrix : Default (MPEG)\n      Muxing mode : Packed bitstream\n      Codec ID : XVID\n      Codec ID/Hint : XviD\n      Duration : 1h 39mn\n      Bit rate : 1 429 Kbps\n      Width : 624 pixels\n      Height : 464 pixels\n      Display aspect ratio : 4:3\n      Frame rate : 23.976 fps\n      Resolution : 24 bits\n      Colorimetry : 4:2:0\n      Scan type : Progressive\n      Bits/(Pixel*Frame) : 0.206\n      Stream size : 1 017 MiB (86%)\n      Writing library : XviD 1.2.0.dev47 (UTC 2006-11-01)\n   Audio #1\n      ID : 1\n      Format : AC-3\n      Format/Info : Audio Coding 3\n      Codec ID : 2000\n      Duration : 1h 39mn\n      Bit rate mode : Constant\n      Bit rate : 224 Kbps\n      Channel(s) : 2 channels\n      Channel positions : L R\n      Sampling rate : 48.0 KHz\n      Stream size : 159 MiB (13%)\n      Alignment : Split accross interleaves\n      Interleave, duration : 42 ms (1.00 video frame)\n      Interleave, preload duration : 500 ms\n\nSpanish audio; English, French and Portuguese subtitles (srt), English, Spanish, French and Portuguese subpack\n\nIMDB: tt0055646","torrent":{"xt":"urn:btih:3e6499448fae123e8f0d45a90bf39c3d7bc48623","amp;dn":"Ismael+Rodriguez+-+Animas+Trujano+%281962%29","amp;tr":["udp%3A%2F%2Ftracker.openbittorrent.com%3A80","udp%3A%2F%2Fopen.demonii.com%3A1337","udp%3A%2F%2Ftracker.coppersurfer.tk%3A6969","udp%3A%2F%2Fexodus.desync.com%3A6969"],"infoHash":"3e6499448fae123e8f0d45a90bf39c3d7bc48623","infoHashBuffer":{"type":"Buffer","data":[62,100,153,68,143,174,18,62,143,13,69,169,11,243,156,61,123,196,134,35]},"announce":[],"urlList":[]}}